<svg id="svg" version="1.1" xmlns="http://www.w3.org/2000/svg" xmlns:xlink="http://www.w3.org/1999/xlink" width="400" height="385.29411764705884" viewBox="0, 0, 400,385.29411764705884"><g id="svgg"><path id="path0" d="M128.420 66.190 C 121.797 66.246,116.378 66.441,116.378 66.622 C 116.378 66.803,115.560 67.044,114.560 67.157 C 113.560 67.269,112.679 67.552,112.601 67.785 C 112.523 68.018,112.053 68.208,111.557 68.208 C 111.052 68.208,110.319 68.633,109.895 69.171 C 109.479 69.701,108.927 70.135,108.669 70.135 C 108.067 70.135,106.374 71.733,106.365 72.310 C 106.361 72.553,105.928 73.160,105.402 73.659 C 104.875 74.158,104.442 74.870,104.438 75.241 C 104.435 75.612,104.272 75.915,104.077 75.915 C 103.882 75.915,103.608 76.435,103.468 77.071 C 103.329 77.707,103.055 78.227,102.860 78.227 C 102.664 78.227,102.505 79.493,102.505 81.040 C 102.505 82.777,102.321 84.038,102.023 84.335 C 101.648 84.710,101.513 91.478,101.413 114.855 C 101.336 132.693,101.141 144.894,100.931 144.894 C 100.737 144.894,100.578 145.743,100.578 146.780 C 100.578 148.100,100.405 148.732,100.000 148.887 C 99.682 149.009,99.422 149.537,99.422 150.062 C 99.422 150.586,99.249 151.121,99.037 151.252 C 98.825 151.383,98.651 151.802,98.651 152.182 C 98.651 152.563,98.218 153.342,97.688 153.913 C 97.158 154.485,96.724 155.043,96.724 155.153 C 96.724 155.498,95.642 156.455,95.252 156.455 C 95.047 156.455,94.780 156.715,94.658 157.033 C 94.536 157.351,94.099 157.611,93.686 157.611 C 93.273 157.611,92.877 157.778,92.807 157.982 C 92.728 158.208,86.796 158.396,77.572 158.463 C 66.123 158.547,62.349 158.691,61.984 159.056 C 61.673 159.368,60.316 159.538,58.134 159.538 C 56.282 159.538,54.659 159.711,54.528 159.923 C 54.397 160.135,53.788 160.308,53.176 160.308 C 52.563 160.308,51.923 160.525,51.753 160.791 C 51.584 161.056,50.925 161.529,50.289 161.842 C 48.710 162.618,45.484 165.966,44.848 167.488 C 44.562 168.173,44.152 168.842,43.936 168.975 C 43.721 169.108,43.545 169.640,43.545 170.158 C 43.545 170.675,43.382 171.098,43.182 171.098 C 42.982 171.098,42.742 173.223,42.649 175.819 C 42.555 178.415,42.271 181.840,42.016 183.430 C 41.404 187.264,41.637 204.797,42.310 205.470 C 42.580 205.740,42.775 207.015,42.775 208.519 C 42.775 211.004,44.212 215.029,45.100 215.029 C 45.259 215.029,45.497 215.462,45.630 215.992 C 45.763 216.522,46.042 216.956,46.250 216.956 C 46.458 216.956,46.628 217.216,46.628 217.534 C 46.628 217.852,46.847 218.112,47.115 218.112 C 47.382 218.112,47.927 218.545,48.325 219.075 C 48.723 219.605,49.376 220.039,49.777 220.039 C 50.178 220.039,50.606 220.299,50.728 220.617 C 50.850 220.934,51.278 221.195,51.679 221.195 C 52.080 221.195,52.408 221.368,52.408 221.580 C 52.408 221.792,52.847 221.965,53.384 221.965 C 53.920 221.965,54.459 222.225,54.581 222.543 C 54.737 222.948,55.368 223.121,56.689 223.121 C 57.726 223.121,58.574 223.295,58.574 223.507 C 58.574 223.758,64.347 223.892,75.122 223.892 C 85.738 223.892,91.755 223.754,91.908 223.507 C 92.039 223.295,92.835 223.121,93.676 223.121 C 94.682 223.121,95.283 222.923,95.429 222.543 C 95.566 222.187,96.152 221.965,96.958 221.965 C 97.678 221.965,98.266 221.811,98.266 221.622 C 98.266 221.433,98.699 221.169,99.229 221.036 C 99.759 220.903,100.193 220.624,100.193 220.417 C 100.193 220.209,100.379 220.039,100.608 220.039 C 101.124 220.039,103.276 217.920,103.276 217.412 C 103.276 217.206,103.547 216.934,103.878 216.807 C 104.209 216.680,104.381 216.415,104.260 216.219 C 104.138 216.022,104.301 215.600,104.621 215.280 C 104.941 214.960,105.202 214.339,105.202 213.900 C 105.202 213.448,105.453 213.102,105.780 213.102 C 106.162 213.102,106.358 212.720,106.358 211.978 C 106.358 211.360,106.575 210.782,106.840 210.694 C 107.214 210.569,107.372 205.643,107.546 188.600 C 107.758 167.872,107.915 164.672,108.747 164.127 C 108.938 164.002,109.123 163.525,109.157 163.067 C 109.192 162.610,109.443 162.235,109.716 162.235 C 109.989 162.235,110.212 161.975,110.212 161.657 C 110.212 161.339,110.472 161.079,110.790 161.079 C 111.108 161.079,111.368 160.926,111.368 160.739 C 111.368 160.551,111.671 160.296,112.042 160.172 C 112.413 160.047,112.977 159.794,113.295 159.609 C 113.613 159.423,114.261 159.072,114.735 158.827 C 115.366 158.501,124.127 158.382,147.513 158.382 C 174.979 158.382,179.533 158.303,180.177 157.816 C 180.588 157.505,181.575 157.244,182.370 157.238 C 183.165 157.231,183.815 157.052,183.815 156.840 C 183.815 156.628,184.102 156.455,184.453 156.455 C 184.803 156.455,185.750 155.761,186.557 154.913 C 187.363 154.066,188.203 153.372,188.424 153.372 C 188.644 153.372,188.825 153.242,188.825 153.083 C 188.825 152.924,189.432 152.112,190.174 151.279 C 190.915 150.445,191.522 149.467,191.522 149.104 C 191.522 148.741,191.782 148.345,192.100 148.223 C 192.463 148.084,192.678 147.494,192.678 146.640 C 192.678 145.892,192.852 145.279,193.064 145.279 C 193.317 145.279,193.449 134.047,193.449 112.354 C 193.449 90.820,193.316 79.347,193.064 79.191 C 192.852 79.060,192.678 78.529,192.678 78.012 C 192.678 77.433,192.456 77.071,192.100 77.071 C 191.775 77.071,191.522 76.727,191.522 76.284 C 191.522 75.851,191.089 75.029,190.559 74.457 C 190.029 73.886,189.595 73.238,189.595 73.017 C 189.595 72.490,187.089 70.135,186.527 70.135 C 186.287 70.135,185.689 69.701,185.198 69.171 C 184.706 68.642,183.953 68.208,183.523 68.208 C 183.093 68.208,182.642 67.948,182.520 67.630 C 182.395 67.305,181.821 67.052,181.207 67.052 C 180.607 67.052,179.951 66.900,179.750 66.713 C 179.353 66.346,147.890 66.026,128.420 66.190 M309.827 99.869 C 303.998 100.043,298.882 100.199,298.459 100.216 C 298.035 100.232,294.635 100.123,290.904 99.972 C 285.977 99.774,284.046 99.819,283.849 100.139 C 283.667 100.433,281.844 100.578,278.334 100.578 C 273.236 100.578,270.135 101.189,270.135 102.194 C 270.135 102.365,269.831 102.505,269.461 102.505 C 269.090 102.506,268.134 103.199,267.336 104.047 C 266.539 104.894,265.790 105.588,265.671 105.588 C 265.315 105.588,264.355 106.662,264.355 107.060 C 264.355 107.265,264.094 107.532,263.776 107.654 C 263.459 107.776,263.198 108.228,263.198 108.658 C 263.198 109.089,263.025 109.441,262.813 109.441 C 262.601 109.441,262.428 109.940,262.428 110.550 C 262.428 111.160,262.168 111.875,261.850 112.139 C 261.391 112.519,261.272 113.637,261.272 117.558 C 261.272 120.436,261.111 122.597,260.886 122.736 C 260.635 122.891,260.501 132.828,260.501 151.287 C 260.501 176.099,260.429 179.628,259.923 179.822 C 259.593 179.949,259.345 180.523,259.345 181.159 C 259.345 181.772,259.190 182.274,259.001 182.274 C 258.812 182.274,258.549 182.707,258.416 183.237 C 258.283 183.767,258.004 184.200,257.796 184.200 C 257.588 184.200,257.418 184.468,257.418 184.795 C 257.418 185.579,256.364 186.650,254.817 187.437 C 254.128 187.787,253.565 188.243,253.565 188.449 C 253.565 188.656,253.150 188.825,252.642 188.825 C 252.135 188.825,251.616 189.096,251.489 189.427 C 251.362 189.758,251.097 189.930,250.901 189.809 C 250.704 189.688,250.282 189.850,249.962 190.170 C 249.642 190.490,248.761 190.751,248.004 190.751 C 247.038 190.751,246.628 190.924,246.628 191.329 C 246.628 191.765,246.160 191.908,244.724 191.908 C 243.677 191.908,242.699 192.103,242.552 192.342 C 242.364 192.646,240.131 192.741,235.111 192.660 C 211.212 192.272,152.601 192.695,152.601 193.256 C 152.601 193.658,152.197 193.834,151.275 193.834 C 150.546 193.834,149.842 194.008,149.711 194.220 C 149.580 194.432,149.204 194.605,148.876 194.605 C 148.161 194.605,143.744 198.831,143.741 199.518 C 143.739 199.783,143.598 200.000,143.427 200.000 C 143.031 200.000,141.811 202.738,141.811 203.625 C 141.811 203.993,141.551 204.554,141.233 204.872 C 140.356 205.749,140.356 304.859,141.233 305.588 C 141.551 305.852,141.811 306.541,141.811 307.119 C 141.811 309.425,146.367 315.430,148.673 316.161 C 149.138 316.309,149.518 316.591,149.518 316.789 C 149.518 316.987,150.049 317.148,150.697 317.148 C 151.345 317.148,151.780 317.304,151.663 317.493 C 151.390 317.934,152.352 318.304,153.766 318.304 C 154.372 318.304,154.976 318.479,155.108 318.693 C 155.431 319.216,249.658 319.214,250.289 318.690 C 250.536 318.485,251.674 318.237,252.818 318.140 C 253.963 318.042,254.960 317.779,255.034 317.555 C 255.109 317.332,255.432 317.148,255.753 317.148 C 256.408 317.148,258.698 315.955,258.895 315.511 C 258.966 315.352,259.269 315.222,259.570 315.222 C 259.870 315.222,260.116 314.961,260.116 314.644 C 260.116 314.326,260.301 314.066,260.528 314.066 C 260.962 314.066,262.042 313.122,262.042 312.744 C 262.042 312.326,263.520 311.048,263.744 311.272 C 263.868 311.395,263.969 311.115,263.969 310.649 C 263.969 310.184,264.229 309.703,264.547 309.581 C 264.865 309.459,265.125 308.965,265.125 308.484 C 265.125 308.003,265.367 307.408,265.664 307.162 C 266.000 306.883,266.212 305.909,266.228 304.570 C 266.242 303.390,266.436 302.204,266.660 301.934 C 267.241 301.235,267.023 247.986,266.437 247.400 C 265.797 246.761,265.724 249.859,265.713 277.746 C 265.708 291.575,265.573 302.890,265.414 302.890 C 265.255 302.890,265.125 303.406,265.125 304.036 C 265.125 305.449,263.458 309.111,261.875 311.174 C 259.945 313.689,259.583 314.066,259.086 314.066 C 258.825 314.066,258.474 314.292,258.304 314.570 C 258.135 314.847,257.389 315.314,256.647 315.607 C 255.906 315.900,255.160 316.367,254.990 316.644 C 254.799 316.957,253.910 317.148,252.646 317.148 C 251.526 317.148,250.490 317.269,250.342 317.416 C 250.008 317.750,160.415 317.638,156.455 317.299 C 153.742 317.066,149.215 315.332,148.812 314.372 C 148.741 314.203,148.511 314.066,148.300 314.066 C 147.706 314.066,145.062 311.078,144.262 309.504 C 143.868 308.728,143.442 308.006,143.316 307.900 C 143.189 307.794,142.969 307.230,142.827 306.647 C 142.684 306.065,142.397 305.588,142.189 305.588 C 141.426 305.588,141.700 208.717,142.470 206.200 C 143.732 202.076,146.242 198.841,150.096 196.368 C 153.840 193.967,151.702 194.070,200.275 193.944 L 244.673 193.828 246.478 192.868 C 247.472 192.340,248.779 191.908,249.383 191.908 C 249.987 191.908,250.482 191.767,250.482 191.596 C 250.482 191.425,251.219 190.963,252.119 190.570 C 255.139 189.251,258.754 186.060,259.432 184.117 C 259.637 183.527,259.962 183.044,260.153 183.044 C 260.345 183.044,260.501 182.534,260.501 181.911 C 260.501 181.288,260.652 180.685,260.836 180.571 C 261.020 180.457,261.285 179.500,261.425 178.445 C 261.565 177.389,261.848 176.421,262.054 176.294 C 262.291 176.147,262.428 164.425,262.428 144.293 C 262.428 126.820,262.569 112.524,262.741 112.524 C 262.913 112.524,263.416 111.695,263.858 110.682 C 265.302 107.376,269.132 103.988,273.211 102.409 C 275.180 101.646,336.512 101.340,336.976 102.090 C 337.097 102.285,337.714 102.559,338.347 102.698 C 338.981 102.838,339.499 103.091,339.499 103.261 C 339.499 103.432,339.803 103.673,340.173 103.797 C 342.315 104.517,345.675 108.032,347.187 111.136 L 348.362 113.548 348.362 144.657 L 348.362 175.766 347.272 177.960 C 345.606 181.312,345.195 181.925,343.753 183.207 C 343.019 183.859,342.109 184.697,341.730 185.067 C 341.351 185.438,340.886 185.742,340.696 185.742 C 340.507 185.742,340.252 186.002,340.130 186.320 C 339.849 187.053,340.296 187.058,341.256 186.332 C 341.667 186.021,342.231 185.761,342.509 185.754 C 343.174 185.738,347.592 181.157,347.592 180.484 C 347.592 180.196,347.765 179.961,347.977 179.961 C 348.189 179.961,348.362 179.522,348.362 178.986 C 348.362 178.449,348.622 177.911,348.940 177.789 C 349.368 177.625,349.518 176.946,349.518 175.180 C 349.518 173.868,349.694 172.618,349.909 172.403 C 350.966 171.346,349.888 112.524,348.812 112.524 C 348.271 112.524,348.176 112.240,348.296 110.983 C 348.379 110.117,348.275 109.441,348.059 109.441 C 347.848 109.441,347.566 109.008,347.433 108.478 C 347.300 107.948,347.021 107.514,346.813 107.514 C 346.606 107.514,346.435 107.329,346.435 107.102 C 346.435 106.568,345.455 105.588,344.922 105.588 C 344.694 105.588,344.509 105.357,344.509 105.075 C 344.509 104.793,344.075 104.330,343.545 104.046 C 343.015 103.763,342.582 103.300,342.582 103.018 C 342.582 102.728,342.164 102.505,341.618 102.505 C 341.089 102.505,340.655 102.365,340.655 102.194 C 340.655 101.486,337.594 100.578,335.208 100.578 C 333.838 100.578,332.552 100.426,332.351 100.240 C 331.764 99.699,321.284 99.526,309.827 99.869 M338.600 186.769 C 338.156 187.213,338.319 187.669,338.921 187.669 C 339.239 187.669,339.499 187.408,339.499 187.091 C 339.499 186.489,339.043 186.326,338.600 186.769 M289.366 187.815 C 289.280 187.890,287.476 188.063,285.356 188.199 C 281.698 188.434,277.842 189.387,277.842 190.057 C 277.842 190.227,277.578 190.366,277.255 190.366 C 276.346 190.366,272.564 194.431,272.064 195.946 C 271.818 196.692,271.499 197.303,271.355 197.303 C 271.085 197.303,270.393 198.774,269.951 200.289 C 269.764 200.927,269.857 201.156,270.302 201.156 C 270.682 201.156,270.906 200.814,270.906 200.234 C 270.906 199.727,271.166 199.212,271.484 199.090 C 271.802 198.968,272.062 198.516,272.062 198.085 C 272.062 197.655,272.235 197.303,272.447 197.303 C 272.659 197.303,272.832 196.994,272.832 196.618 C 272.832 196.017,273.856 194.830,276.455 192.417 C 277.348 191.587,278.913 190.751,279.573 190.751 C 279.841 190.751,280.270 190.499,280.526 190.190 C 280.921 189.713,284.036 189.611,300.978 189.515 C 316.330 189.429,321.076 189.291,321.445 188.921 C 321.830 188.536,321.584 188.433,320.212 188.406 C 319.269 188.388,312.601 188.307,305.395 188.227 C 298.189 188.146,291.669 187.990,290.907 187.879 C 290.145 187.769,289.451 187.740,289.366 187.815 M333.333 188.222 C 333.333 188.956,336.227 188.939,336.839 188.201 C 337.206 187.760,336.944 187.669,335.307 187.669 C 333.848 187.669,333.333 187.813,333.333 188.222 M324.277 188.476 C 323.342 188.684,323.507 188.742,325.145 188.779 C 326.257 188.804,327.168 188.758,327.168 188.677 C 327.168 188.357,325.371 188.232,324.277 188.476 M268.979 202.312 C 268.979 203.117,269.143 203.478,269.461 203.372 C 269.725 203.284,269.942 202.807,269.942 202.312 C 269.942 201.818,269.725 201.341,269.461 201.252 C 269.143 201.146,268.979 201.507,268.979 202.312 M267.823 204.794 C 267.823 205.609,268.475 205.874,268.746 205.169 C 269.075 204.310,269.049 204.239,268.401 204.239 C 268.083 204.239,267.823 204.489,267.823 204.794 M267.052 207.163 C 267.052 207.959,266.775 208.916,266.435 209.291 C 265.813 209.979,265.528 214.404,266.071 214.947 C 266.583 215.460,267.040 214.002,267.046 211.836 C 267.049 210.592,267.291 209.230,267.594 208.753 C 268.242 207.733,268.208 206.101,267.534 205.876 C 267.205 205.767,267.052 206.177,267.052 207.163 M266.071 230.250 C 266.071 238.516,266.122 241.843,266.185 237.643 C 266.247 233.443,266.247 226.680,266.184 222.614 C 266.122 218.548,266.071 221.985,266.071 230.250 " stroke="none" fill="#bcdbc4" fill-rule="evenodd"></path><path id="path1" d="M318.213 99.695 C 318.692 99.787,319.386 99.783,319.754 99.687 C 320.122 99.590,319.730 99.515,318.882 99.519 C 318.035 99.523,317.733 99.602,318.213 99.695 M325.530 99.694 C 326.007 99.786,326.787 99.786,327.264 99.694 C 327.741 99.602,327.351 99.527,326.397 99.527 C 325.443 99.527,325.053 99.602,325.530 99.694 M273.015 102.448 C 269.035 104.076,265.261 107.469,263.858 110.682 C 263.416 111.695,262.913 112.524,262.741 112.524 C 262.569 112.524,262.428 126.820,262.428 144.293 C 262.428 164.425,262.291 176.147,262.054 176.294 C 261.848 176.421,261.565 177.389,261.425 178.445 C 261.285 179.500,261.020 180.457,260.836 180.571 C 260.652 180.685,260.501 181.288,260.501 181.911 C 260.501 182.534,260.345 183.044,260.153 183.044 C 259.962 183.044,259.637 183.527,259.432 184.117 C 258.754 186.060,255.139 189.251,252.119 190.570 C 251.219 190.963,250.482 191.425,250.482 191.596 C 250.482 191.767,249.987 191.908,249.383 191.908 C 248.779 191.908,247.472 192.340,246.478 192.868 L 244.673 193.828 200.275 193.944 C 151.702 194.070,153.840 193.967,150.096 196.368 C 146.242 198.841,143.732 202.076,142.470 206.200 C 141.700 208.717,141.426 305.588,142.189 305.588 C 142.397 305.588,142.684 306.065,142.827 306.647 C 142.969 307.230,143.189 307.794,143.316 307.900 C 143.442 308.006,143.868 308.728,144.262 309.504 C 145.062 311.078,147.706 314.066,148.300 314.066 C 148.511 314.066,148.741 314.203,148.812 314.372 C 149.215 315.332,153.742 317.066,156.455 317.299 C 160.415 317.638,250.008 317.750,250.342 317.416 C 250.490 317.269,251.526 317.148,252.646 317.148 C 253.910 317.148,254.799 316.957,254.990 316.644 C 255.160 316.367,255.906 315.900,256.647 315.607 C 257.389 315.314,258.135 314.847,258.304 314.570 C 258.474 314.292,258.825 314.066,259.086 314.066 C 260.564 314.066,265.125 306.491,265.125 304.036 C 265.125 303.406,265.255 302.890,265.414 302.890 C 265.679 302.890,265.767 286.299,265.790 232.563 C 265.800 209.274,265.777 210.018,266.489 209.232 C 266.799 208.890,267.052 207.955,267.052 207.154 C 267.052 206.013,267.178 205.746,267.635 205.922 C 268.092 206.097,268.166 205.939,267.978 205.192 C 267.798 204.474,267.892 204.239,268.359 204.239 C 268.828 204.239,268.979 203.854,268.979 202.656 C 268.979 201.549,269.123 201.129,269.461 201.258 C 269.753 201.370,269.963 201.093,269.996 200.551 C 270.060 199.500,270.979 197.303,271.355 197.303 C 271.499 197.303,271.818 196.692,272.064 195.946 C 272.564 194.431,276.346 190.366,277.255 190.366 C 277.578 190.366,277.842 190.227,277.842 190.057 C 277.842 189.541,281.348 188.507,284.008 188.239 C 287.034 187.934,301.079 188.043,322.543 188.538 C 323.073 188.550,324.027 188.539,324.663 188.512 C 325.299 188.486,327.510 188.511,329.576 188.568 C 332.456 188.647,333.333 188.554,333.333 188.170 C 333.333 187.824,333.940 187.669,335.283 187.669 C 336.740 187.669,337.159 187.790,336.943 188.150 C 336.591 188.737,337.965 187.713,338.574 186.935 C 338.806 186.638,339.198 186.519,339.443 186.671 C 339.693 186.825,339.992 186.681,340.121 186.344 C 340.248 186.013,340.507 185.742,340.696 185.742 C 340.886 185.742,341.351 185.438,341.730 185.067 C 342.109 184.697,343.019 183.859,343.753 183.207 C 345.195 181.924,345.605 181.312,347.276 177.951 L 348.371 175.749 348.358 143.926 C 348.351 126.424,348.204 112.191,348.033 112.297 C 347.861 112.403,347.363 111.670,346.926 110.669 C 345.837 108.175,342.206 104.480,340.173 103.797 C 339.803 103.673,339.499 103.432,339.499 103.261 C 339.499 103.091,338.981 102.838,338.347 102.698 C 337.714 102.559,337.097 102.285,336.976 102.090 C 336.534 101.374,274.795 101.720,273.015 102.448 " stroke="none" fill="#1db454" fill-rule="evenodd"></path></g></svg>